<svg id="svg" version="1.1" xmlns="http://www.w3.org/2000/svg" xmlns:xlink="http://www.w3.org/1999/xlink" width="400" height="400" viewBox="0, 0, 400,400"><g id="svgg"><path id="path0" d="M297.733 135.327 C 294.544 135.685,288.672 135.985,274.000 136.538 C 267.325 136.790,260.541 137.186,232.667 138.951 C 229.217 139.169,217.361 139.203,190.533 139.072 C 148.709 138.868,138.408 139.045,120.400 140.277 C 108.432 141.096,92.387 142.916,88.800 143.862 C 87.993 144.075,85.413 144.497,83.067 144.800 C 66.225 146.974,64.206 149.660,70.652 161.310 C 72.954 165.471,73.533 166.776,73.871 168.558 C 74.192 170.251,74.200 170.259,74.964 169.850 C 75.500 169.563,75.623 169.601,75.987 170.162 C 76.771 171.372,77.653 171.974,79.122 172.302 C 81.272 172.783,81.743 173.233,81.211 174.298 C 79.930 176.864,80.083 179.888,81.697 183.907 C 82.215 185.196,82.603 186.285,82.561 186.328 C 82.518 186.371,81.295 186.653,79.842 186.956 C 75.826 187.793,73.600 189.175,73.600 190.833 C 73.600 192.007,72.869 192.533,71.238 192.533 C 69.480 192.533,69.034 192.838,69.245 193.893 C 69.349 194.411,69.139 195.190,68.564 196.418 C 67.621 198.433,67.587 198.677,68.111 199.691 C 68.406 200.261,68.427 200.653,68.206 201.481 C 67.966 202.381,68.030 202.901,68.628 204.937 C 69.016 206.255,69.333 207.849,69.333 208.479 C 69.333 209.359,69.488 209.769,70.000 210.243 C 70.830 211.013,70.829 211.276,69.990 212.930 C 69.172 214.541,69.076 214.432,72.933 216.269 C 77.675 218.527,83.250 220.037,89.733 220.819 C 91.053 220.978,98.373 221.210,106.000 221.334 C 120.353 221.568,122.755 221.726,128.106 222.797 L 131.279 223.432 132.235 222.783 C 133.620 221.841,134.133 221.918,134.133 223.067 C 134.133 223.936,134.191 224.000,134.975 224.000 C 135.462 224.000,136.185 224.281,136.690 224.667 C 138.108 225.748,139.128 225.489,139.436 223.968 C 139.582 223.251,139.763 223.050,140.320 222.984 C 141.286 222.871,141.514 222.138,140.759 221.569 C 140.249 221.184,140.212 221.054,140.512 220.692 C 141.390 219.634,142.045 220.219,142.959 222.874 C 143.738 225.138,145.002 226.281,144.650 224.403 C 144.507 223.643,144.566 223.439,144.971 223.291 C 145.244 223.192,145.864 222.768,146.349 222.349 C 147.433 221.415,147.606 221.513,148.555 223.606 L 149.311 225.272 150.567 224.636 C 152.173 223.823,153.499 223.830,157.067 224.667 C 160.482 225.468,160.794 225.474,162.995 224.784 L 164.746 224.234 167.061 224.784 C 169.775 225.428,170.873 225.462,171.584 224.925 C 172.241 224.428,173.176 224.422,173.582 224.912 C 173.931 225.332,217.566 225.294,218.215 224.873 C 218.390 224.760,233.593 224.657,252.000 224.646 C 284.467 224.626,289.362 224.531,299.600 223.722 C 303.577 223.408,303.440 223.428,315.867 221.281 C 326.261 219.486,325.808 219.651,327.484 217.039 C 329.832 213.381,330.640 209.207,330.939 199.200 C 331.064 195.020,331.408 189.200,331.704 186.267 C 333.391 169.547,332.965 153.988,330.647 147.637 C 327.197 138.184,314.520 133.443,297.733 135.327 M223.256 153.158 C 234.305 156.029,240.072 164.858,240.094 178.933 C 240.121 197.032,231.455 207.289,215.600 207.922 C 198.578 208.601,189.330 198.940,189.334 180.482 C 189.338 164.275,196.580 154.735,210.539 152.546 C 213.545 152.075,220.347 152.402,223.256 153.158 M285.067 152.966 C 288.333 153.521,295.467 155.687,295.467 156.124 C 295.467 156.217,293.184 162.872,292.926 163.533 C 292.645 164.251,291.860 164.097,289.867 162.933 C 279.690 156.990,266.976 158.600,261.842 166.482 C 257.727 172.801,257.523 187.602,261.460 194.267 C 265.280 200.734,276.613 202.839,286.733 198.961 L 287.467 198.680 287.467 192.050 L 287.467 185.420 291.234 185.177 C 293.736 185.015,295.037 185.023,295.105 185.201 C 295.161 185.349,295.175 189.784,295.137 195.058 L 295.067 204.646 292.933 205.264 C 266.168 213.017,250.067 204.039,250.020 181.333 C 249.977 160.364,263.616 149.325,285.067 152.966 M128.358 153.547 C 134.632 155.278,137.989 158.740,138.672 164.180 C 139.420 170.145,136.800 175.545,131.897 178.146 C 130.351 178.966,130.360 179.038,132.056 179.429 C 138.429 180.900,142.133 185.521,142.133 192.000 C 142.133 200.349,136.645 205.461,125.951 207.075 C 123.080 207.508,107.474 207.691,105.467 207.315 L 104.667 207.165 104.622 179.962 L 104.578 152.758 115.422 152.864 C 125.533 152.963,126.408 153.009,128.358 153.547 M164.927 155.333 C 164.924 156.653,164.882 165.233,164.835 174.400 C 164.788 183.567,164.761 193.137,164.775 195.667 L 164.800 200.267 175.315 200.267 C 185.748 200.267,185.832 200.271,186.008 200.824 C 186.180 201.366,185.981 204.992,185.698 206.467 L 185.558 207.200 171.017 207.200 L 156.476 207.200 156.669 206.467 C 156.903 205.577,156.879 156.703,156.644 154.754 C 156.400 152.739,156.317 152.777,160.887 152.860 L 164.933 152.933 164.927 155.333 M211.344 159.479 C 202.392 160.884,198.408 166.352,197.944 177.867 C 197.311 193.571,202.655 200.935,214.667 200.911 C 225.404 200.890,230.414 195.814,231.512 183.842 C 233.084 166.718,225.279 157.290,211.344 159.479 M112.533 167.705 L 112.533 175.944 116.678 176.138 C 126.150 176.582,129.966 174.057,129.981 167.333 C 129.995 161.187,127.219 159.467,117.284 159.467 L 112.533 159.467 112.533 167.705 M112.487 186.172 C 112.427 188.100,112.427 192.224,112.488 195.338 L 112.597 200.998 116.116 201.185 C 128.006 201.815,133.982 198.307,133.543 190.956 C 133.187 185.003,128.841 182.667,118.122 182.667 L 112.596 182.667 112.487 186.172 M277.892 239.004 C 276.620 239.658,276.143 240.674,276.040 242.951 L 275.944 245.067 274.804 245.067 C 273.590 245.067,272.896 245.572,273.162 246.263 C 273.271 246.549,273.706 246.667,274.653 246.667 L 275.990 246.667 276.062 252.733 L 276.133 258.800 276.933 258.800 L 277.733 258.800 277.867 252.800 L 278.000 246.800 279.547 246.720 C 282.182 246.583,281.930 245.067,279.272 245.067 C 278.048 245.067,277.836 244.998,277.971 244.645 C 278.060 244.413,278.133 243.596,278.133 242.829 C 278.133 240.822,278.542 240.385,280.352 240.462 C 281.787 240.523,282.414 240.137,281.991 239.452 C 281.575 238.780,278.899 238.487,277.892 239.004 M118.174 239.551 C 117.600 240.242,117.877 258.398,118.467 258.770 C 119.147 259.199,119.849 258.662,119.951 257.634 L 120.035 256.788 121.123 257.720 C 126.182 262.050,132.392 256.793,130.675 249.635 C 129.584 245.087,124.357 243.326,121.068 246.399 C 120.596 246.840,120.166 247.200,120.112 247.200 C 120.058 247.200,119.981 245.430,119.940 243.267 L 119.867 239.333 119.177 239.253 C 118.798 239.209,118.346 239.343,118.174 239.551 M134.731 239.509 C 134.480 239.760,134.400 242.073,134.400 249.087 C 134.400 259.149,134.406 259.190,135.867 258.824 L 136.540 258.655 136.470 248.994 L 136.400 239.333 135.731 239.255 C 135.364 239.212,134.914 239.326,134.731 239.509 M268.331 239.509 C 268.080 239.760,268.000 242.073,268.000 249.087 C 268.000 259.149,268.006 259.190,269.467 258.824 L 270.140 258.655 270.070 248.994 L 270.000 239.333 269.331 239.255 C 268.964 239.212,268.514 239.326,268.331 239.509 M145.333 245.039 C 139.289 246.330,138.161 255.581,143.697 258.457 C 146.442 259.883,150.439 259.201,152.066 257.029 C 156.402 251.240,152.107 243.592,145.333 245.039 M160.915 245.038 C 155.393 246.444,154.633 256.060,159.856 258.432 C 162.055 259.431,165.523 258.780,166.578 257.170 C 167.345 255.999,167.555 256.410,167.376 258.732 C 167.071 262.691,164.494 264.151,160.400 262.682 C 157.834 261.762,157.887 261.770,157.692 262.278 C 157.452 262.904,158.827 264.138,160.186 264.515 C 163.851 265.533,167.872 264.232,168.966 261.675 C 169.547 260.319,169.498 245.802,168.911 245.315 C 168.280 244.791,167.625 245.335,167.467 246.515 L 167.333 247.508 166.533 246.664 C 165.131 245.183,162.889 244.535,160.915 245.038 M199.729 245.034 C 196.341 245.738,194.103 249.084,194.497 252.855 C 195.438 261.862,208.023 261.194,208.090 252.133 C 208.126 247.287,204.343 244.075,199.729 245.034 M232.340 245.097 C 231.867 245.233,231.147 245.764,230.740 246.277 L 230.000 247.208 229.867 246.365 C 229.700 245.309,229.020 244.819,228.418 245.319 C 228.044 245.629,228.000 246.487,228.062 252.236 L 228.133 258.800 228.933 258.800 L 229.733 258.800 229.870 254.133 C 230.046 248.136,230.479 247.211,233.338 246.723 C 234.746 246.482,235.318 245.756,234.549 245.184 C 233.968 244.753,233.582 244.738,232.340 245.097 M240.864 245.082 C 236.311 245.980,236.046 250.857,240.489 251.996 C 245.647 253.318,246.400 253.700,246.400 254.992 C 246.400 257.391,243.492 258.314,239.867 257.067 C 237.362 256.205,236.329 256.771,238.003 258.088 C 240.595 260.127,246.883 259.264,248.099 256.702 C 249.535 253.675,248.067 251.937,243.123 250.814 C 239.806 250.061,238.796 249.025,239.917 247.524 C 240.811 246.327,244.234 246.060,245.772 247.068 C 247.216 248.013,248.397 247.077,247.133 245.989 C 246.042 245.051,243.147 244.632,240.864 245.082 M256.137 245.102 C 251.124 246.276,249.624 253.807,253.664 257.513 C 255.919 259.582,259.817 259.827,262.406 258.064 C 264.625 256.553,264.039 255.457,261.665 256.678 C 257.785 258.675,253.635 256.919,253.606 253.267 L 253.600 252.533 258.551 252.533 C 264.460 252.533,264.660 252.471,264.412 250.710 C 263.802 246.383,260.430 244.098,256.137 245.102 M179.933 245.355 C 179.222 245.769,179.278 245.952,182.133 252.494 C 185.201 259.524,185.040 258.744,183.972 261.398 C 183.515 262.534,183.211 263.644,183.296 263.865 C 183.483 264.353,184.952 264.407,185.146 263.933 C 185.221 263.750,186.859 259.769,188.787 255.087 C 192.299 246.558,192.530 245.770,191.672 245.232 C 190.948 244.778,190.647 245.291,188.410 250.800 C 187.278 253.587,186.259 255.964,186.145 256.084 C 186.032 256.204,184.940 253.886,183.720 250.934 C 181.394 245.305,181.004 244.731,179.933 245.355 M212.053 245.387 C 211.476 245.964,211.632 255.350,212.241 256.693 C 213.586 259.654,218.954 260.124,220.711 257.434 L 221.200 256.685 221.333 257.582 C 221.495 258.666,222.184 259.200,222.867 258.770 C 223.645 258.279,223.712 245.750,222.938 245.336 C 221.550 244.593,221.334 245.210,221.327 249.943 C 221.319 256.153,220.506 257.597,217.015 257.599 C 214.048 257.601,213.643 256.642,213.616 249.562 C 213.602 246.014,213.537 245.366,213.178 245.229 C 212.583 245.000,212.417 245.023,212.053 245.387 M126.295 246.909 C 129.195 248.226,129.559 254.683,126.861 256.953 C 125.058 258.470,121.673 257.441,120.659 255.067 C 118.508 250.032,122.010 244.963,126.295 246.909 M149.250 247.075 C 151.395 248.480,152.150 252.331,150.816 255.057 C 148.462 259.869,142.400 257.695,142.400 252.039 C 142.400 247.863,146.224 245.092,149.250 247.075 M165.235 247.222 C 167.669 248.726,167.992 253.926,165.793 256.205 C 162.827 259.280,158.670 256.748,158.670 251.867 C 158.670 247.399,161.865 245.139,165.235 247.222 M203.210 247.000 C 207.461 249.143,206.372 257.160,201.779 257.541 C 198.756 257.791,196.998 255.996,196.839 252.498 C 196.631 247.912,199.725 245.242,203.210 247.000 M260.010 247.000 C 260.879 247.438,261.362 247.921,261.800 248.790 C 262.907 250.985,262.999 250.933,258.000 250.933 C 253.245 250.933,253.353 250.975,254.013 249.395 C 255.139 246.700,257.526 245.747,260.010 247.000 " stroke="none" fill="#fbfbfc" fill-rule="evenodd"></path><path id="path1" d="M0.000 200.000 L 0.000 400.000 200.000 400.000 L 400.000 400.000 400.000 200.000 L 400.000 0.000 200.000 0.000 L 0.000 0.000 0.000 200.000 M310.287 134.959 C 319.740 135.908,327.684 140.423,330.314 146.341 C 332.457 151.164,333.234 158.109,332.824 168.800 C 332.312 182.172,332.241 183.472,331.841 186.766 C 331.625 188.545,331.337 193.660,331.201 198.133 C 330.877 208.783,330.143 212.853,327.862 216.667 C 325.987 219.800,326.464 219.593,317.422 221.197 C 297.939 224.654,295.053 224.820,254.895 224.806 C 236.778 224.800,224.168 224.912,219.562 225.120 C 215.623 225.298,210.420 225.390,208.000 225.326 C 201.355 225.148,195.299 225.176,184.187 225.436 L 174.107 225.673 173.563 225.089 C 173.264 224.767,172.939 224.541,172.842 224.586 C 170.451 225.676,170.259 225.696,167.756 225.101 C 164.921 224.427,164.291 224.405,163.026 224.933 C 161.714 225.481,159.194 225.428,156.800 224.800 C 154.122 224.098,151.960 224.109,150.464 224.833 C 149.148 225.471,149.069 225.426,148.430 223.688 C 147.736 221.800,147.357 221.610,146.310 222.625 C 145.832 223.088,145.282 223.467,145.087 223.467 C 144.822 223.467,144.775 223.738,144.902 224.533 C 145.274 226.859,143.612 225.375,142.669 222.539 C 141.965 220.424,141.534 220.002,140.780 220.685 L 140.236 221.177 140.803 221.386 C 141.721 221.726,141.433 223.024,140.400 223.201 C 139.726 223.316,139.579 223.483,139.467 224.263 C 139.256 225.723,138.275 225.920,136.634 224.834 C 135.659 224.188,135.171 224.023,134.608 224.146 C 133.890 224.304,133.867 224.275,133.867 223.196 L 133.867 222.082 132.467 222.865 C 131.112 223.622,131.024 223.636,129.733 223.294 C 125.271 222.111,121.569 221.830,107.333 221.597 C 94.356 221.384,90.192 221.171,86.267 220.516 C 81.125 219.659,76.141 218.078,71.959 215.979 C 68.982 214.486,68.892 214.315,70.040 212.356 L 70.746 211.150 70.068 210.575 C 69.526 210.116,69.359 209.677,69.238 208.400 C 69.155 207.520,68.832 206.080,68.522 205.200 C 68.082 203.955,67.987 203.209,68.093 201.835 C 68.174 200.789,68.118 199.958,67.955 199.795 C 67.470 199.310,67.660 197.727,68.373 196.319 C 68.776 195.524,69.067 194.504,69.067 193.885 C 69.067 192.593,69.536 192.267,71.396 192.267 C 72.800 192.267,73.333 191.939,73.333 191.075 C 73.333 189.240,75.862 187.548,79.733 186.792 C 82.605 186.232,82.508 186.419,81.394 183.600 C 80.148 180.448,79.911 177.192,80.763 174.959 C 81.469 173.111,81.386 173.014,78.482 172.273 C 77.713 172.077,77.080 171.655,76.451 170.920 C 75.623 169.954,75.470 169.879,74.826 170.124 C 74.024 170.428,74.086 170.526,73.611 168.209 C 73.439 167.370,72.644 165.450,71.844 163.942 C 66.456 153.791,65.993 151.766,68.439 149.058 C 70.336 146.959,74.063 145.803,82.533 144.685 C 85.467 144.298,88.527 143.805,89.333 143.589 C 92.517 142.736,108.521 140.927,119.733 140.151 C 139.287 138.799,154.149 138.552,193.200 138.932 C 228.817 139.279,222.234 139.438,253.200 137.477 C 268.631 136.499,273.203 136.282,281.733 136.117 C 286.246 136.030,291.632 135.752,294.667 135.450 C 303.207 134.601,305.880 134.517,310.287 134.959 M209.264 152.940 C 196.271 155.386,189.490 164.901,189.502 180.667 C 189.516 198.567,197.775 207.589,214.133 207.572 C 229.371 207.556,237.942 199.751,239.749 184.248 C 241.611 168.272,235.389 156.550,223.333 153.321 C 220.503 152.564,212.425 152.344,209.264 152.940 M273.200 152.840 C 257.607 154.835,249.699 165.081,250.209 182.625 C 250.845 204.482,266.777 212.681,293.513 204.908 L 294.933 204.495 294.933 194.756 L 294.933 185.017 293.667 185.166 C 292.970 185.248,291.320 185.390,290.000 185.480 L 287.600 185.646 287.688 192.161 L 287.775 198.676 286.754 199.103 C 278.778 202.440,267.771 201.345,263.186 196.761 C 256.539 190.113,256.758 171.358,263.568 164.070 C 269.079 158.171,280.757 157.550,289.702 162.678 C 291.001 163.423,292.208 163.977,292.385 163.909 C 292.692 163.792,295.372 156.327,295.166 156.165 C 292.279 153.881,279.809 151.994,273.200 152.840 M104.853 180.089 L 104.903 207.144 110.918 207.342 C 131.835 208.029,140.450 204.299,141.893 193.933 C 142.906 186.651,139.172 181.512,131.340 179.409 L 130.013 179.052 131.594 178.160 C 140.898 172.909,141.130 159.578,131.997 155.116 C 128.197 153.261,128.020 153.239,115.801 153.131 L 104.803 153.034 104.853 180.089 M156.922 180.133 L 156.933 207.200 171.238 207.200 L 185.542 207.200 185.779 204.200 C 185.909 202.550,185.970 201.050,185.913 200.867 C 185.833 200.607,183.479 200.533,175.321 200.533 L 164.833 200.533 164.641 199.267 C 164.536 198.570,164.527 187.890,164.621 175.533 L 164.792 153.067 160.852 153.067 L 156.912 153.067 156.922 180.133 M123.553 159.583 C 128.225 160.476,130.133 162.682,130.133 167.185 C 130.133 170.287,129.578 171.798,127.774 173.602 C 125.154 176.222,123.989 176.488,115.800 176.333 L 112.267 176.267 112.267 169.774 C 112.267 166.202,112.344 162.362,112.439 161.240 L 112.612 159.200 117.082 159.200 C 119.860 159.200,122.311 159.345,123.553 159.583 M220.108 159.727 C 228.158 161.786,231.729 168.147,231.732 180.432 C 231.736 194.668,226.430 201.097,214.667 201.111 C 203.870 201.123,198.874 195.789,197.836 183.145 C 196.746 169.847,200.926 161.486,209.600 159.616 C 212.294 159.035,217.624 159.092,220.108 159.727 M126.000 183.055 C 131.463 184.546,133.716 187.042,133.713 191.600 C 133.710 196.715,130.787 199.710,124.592 200.945 C 122.246 201.412,113.082 201.438,112.622 200.978 C 112.500 200.856,112.365 196.690,112.323 191.719 L 112.247 182.682 115.790 182.583 C 121.177 182.433,124.236 182.574,126.000 183.055 M281.449 238.927 C 282.852 239.460,282.124 241.009,280.645 240.638 C 278.939 240.209,278.138 241.260,278.135 243.933 L 278.133 245.067 279.591 245.067 C 280.758 245.067,281.103 245.169,281.323 245.581 C 281.758 246.394,281.011 246.933,279.448 246.933 L 278.133 246.933 278.133 252.791 C 278.133 259.289,278.011 259.716,276.366 258.966 L 275.733 258.678 275.733 252.806 L 275.733 246.933 274.686 246.933 C 273.391 246.933,272.675 246.332,273.077 245.581 C 273.286 245.191,273.639 245.067,274.543 245.067 L 275.733 245.067 275.735 243.667 C 275.739 239.587,278.079 237.645,281.449 238.927 M119.947 239.253 C 120.165 239.471,120.267 240.747,120.267 243.253 L 120.267 246.933 120.824 246.376 C 123.037 244.163,127.612 244.345,129.423 246.719 C 134.730 253.677,127.127 263.514,120.867 257.789 C 120.379 257.343,120.267 257.318,120.267 257.657 C 120.267 258.594,119.318 259.340,118.565 258.996 L 117.867 258.678 117.867 249.126 C 117.867 239.081,117.884 238.933,119.067 238.933 C 119.375 238.933,119.771 239.077,119.947 239.253 M136.381 239.352 C 137.109 240.081,137.002 258.134,136.266 258.801 C 135.824 259.201,135.616 259.232,135.066 258.981 L 134.400 258.678 134.400 249.126 C 134.400 242.052,134.483 239.490,134.720 239.253 C 135.163 238.810,135.882 238.853,136.381 239.352 M269.981 239.352 C 270.614 239.985,270.614 258.148,269.981 258.781 C 269.490 259.272,269.217 259.299,268.516 258.924 C 267.880 258.584,267.694 239.879,268.320 239.253 C 268.763 238.810,269.482 238.853,269.981 239.352 M149.428 245.088 C 154.025 246.365,155.483 253.731,151.875 257.444 C 147.517 261.927,140.012 258.642,140.003 252.248 C 139.995 246.840,144.208 243.639,149.428 245.088 M164.742 245.214 C 165.287 245.442,166.063 245.944,166.467 246.331 L 167.200 247.033 167.200 246.370 C 167.200 245.559,167.654 245.067,168.400 245.067 C 169.558 245.067,169.600 245.342,169.599 252.920 C 169.597 262.000,169.306 263.068,166.500 264.309 C 163.135 265.797,157.600 264.696,157.600 262.538 C 157.600 261.622,158.231 261.546,159.795 262.274 C 163.820 264.148,166.990 262.673,167.164 258.847 L 167.262 256.682 166.183 257.657 C 161.840 261.580,156.020 258.015,156.321 251.615 C 156.571 246.309,160.398 243.400,164.742 245.214 M203.836 245.126 C 207.412 246.188,209.402 251.551,207.631 255.355 C 204.366 262.366,194.341 259.946,194.341 252.146 C 194.341 246.783,198.660 243.589,203.836 245.126 M234.914 245.296 C 235.324 246.063,234.687 246.682,233.201 246.959 C 230.575 247.450,230.137 248.501,230.135 254.314 C 230.133 259.037,229.833 259.771,228.249 258.924 C 227.616 258.585,227.434 246.006,228.053 245.387 C 228.795 244.645,230.126 245.198,230.141 246.253 C 230.149 246.766,230.167 246.770,230.432 246.315 C 231.229 244.944,234.346 244.236,234.914 245.296 M246.673 245.487 C 248.716 246.676,247.747 248.197,245.574 247.211 C 243.663 246.344,240.628 246.539,239.937 247.573 C 239.004 248.971,239.979 249.866,243.333 250.690 C 247.777 251.782,249.161 253.057,248.681 255.615 C 248.011 259.190,240.618 260.843,237.673 258.077 C 236.106 256.605,237.256 256.050,240.046 256.932 C 242.808 257.804,244.494 257.681,245.653 256.522 C 247.430 254.744,246.394 253.649,241.867 252.522 C 237.417 251.414,235.894 249.101,237.919 246.527 C 239.320 244.747,244.370 244.146,246.673 245.487 M260.948 245.303 C 263.124 246.291,264.681 248.951,264.486 251.345 L 264.400 252.400 258.996 252.472 L 253.593 252.544 253.754 253.272 C 254.312 255.795,255.148 256.817,257.083 257.338 C 258.431 257.701,259.760 257.458,261.564 256.518 C 263.898 255.303,264.777 256.574,262.662 258.106 C 257.675 261.719,251.332 258.300,251.334 252.000 C 251.336 246.426,256.105 243.103,260.948 245.303 M181.525 245.400 C 181.666 245.583,182.725 248.039,183.877 250.858 C 185.030 253.677,186.028 255.927,186.096 255.859 C 186.164 255.791,187.191 253.365,188.377 250.468 C 190.635 244.952,191.029 244.417,192.148 245.346 C 192.756 245.850,192.721 245.961,189.026 255.010 C 185.308 264.115,184.988 264.705,183.920 264.437 C 182.885 264.177,182.873 263.609,183.852 261.180 L 184.764 258.920 182.125 252.902 C 180.674 249.593,179.419 246.668,179.335 246.404 C 179.021 245.417,180.881 244.565,181.525 245.400 M213.547 245.387 C 213.769 245.609,213.875 247.134,213.893 250.387 C 213.930 256.838,214.227 257.471,217.198 257.428 C 220.416 257.382,221.064 256.211,221.066 250.449 C 221.067 245.648,221.211 245.067,222.400 245.067 C 223.639 245.067,223.733 245.563,223.733 252.116 C 223.733 257.778,223.702 258.165,223.200 258.667 C 222.342 259.524,221.076 258.987,221.059 257.759 C 221.051 257.250,221.026 257.242,220.778 257.669 C 220.047 258.923,216.935 259.739,214.937 259.201 C 212.142 258.448,211.467 256.696,211.467 250.202 C 211.467 245.485,211.564 245.067,212.667 245.067 C 212.975 245.067,213.371 245.211,213.547 245.387 M122.409 247.158 C 119.609 248.660,119.602 255.280,122.400 256.915 C 125.630 258.803,128.400 256.534,128.400 252.000 C 128.400 247.605,125.678 245.405,122.409 247.158 M145.150 247.057 C 142.663 248.139,141.737 253.021,143.525 255.630 C 145.362 258.312,149.132 258.025,150.643 255.088 C 153.010 250.489,149.399 245.209,145.150 247.057 M160.881 247.188 C 158.972 248.353,158.191 253.443,159.625 255.380 C 162.822 259.700,168.114 256.184,166.972 250.497 C 166.322 247.260,163.382 245.663,160.881 247.188 M199.304 247.175 C 196.842 248.676,196.110 252.573,197.760 255.399 C 199.462 258.314,203.536 258.154,204.951 255.116 C 207.237 250.206,203.334 244.717,199.304 247.175 M256.055 247.112 C 255.109 247.578,253.867 249.420,253.867 250.357 C 253.867 250.923,253.940 250.933,258.035 250.933 L 262.203 250.933 262.042 249.940 C 261.615 247.307,258.574 245.870,256.055 247.112 " stroke="none" fill="#0484fc" fill-rule="evenodd"></path><path id="path2" d="M304.467 134.862 C 305.090 134.918,306.110 134.918,306.733 134.862 C 307.357 134.806,306.847 134.760,305.600 134.760 C 304.353 134.760,303.843 134.806,304.467 134.862 M280.867 136.184 C 281.123 136.251,281.543 136.251,281.800 136.184 C 282.057 136.117,281.847 136.062,281.333 136.062 C 280.820 136.062,280.610 136.117,280.867 136.184 M163.815 138.866 C 165.547 138.912,168.307 138.912,169.948 138.866 C 171.590 138.819,170.173 138.781,166.800 138.781 C 163.427 138.781,162.083 138.819,163.815 138.866 M143.667 139.122 C 143.997 139.185,144.537 139.185,144.867 139.122 C 145.197 139.058,144.927 139.006,144.267 139.006 C 143.607 139.006,143.337 139.058,143.667 139.122 M197.542 139.130 C 198.317 139.184,199.517 139.184,200.209 139.129 C 200.901 139.074,200.267 139.030,198.800 139.031 C 197.333 139.031,196.767 139.076,197.542 139.130 M114.067 152.998 C 115.277 153.048,117.257 153.048,118.467 152.998 C 119.677 152.949,118.687 152.909,116.267 152.909 C 113.847 152.909,112.857 152.949,114.067 152.998 M122.200 152.984 C 122.457 153.051,122.877 153.051,123.133 152.984 C 123.390 152.917,123.180 152.862,122.667 152.862 C 122.153 152.862,121.943 152.917,122.200 152.984 M104.634 161.067 C 104.634 162.753,104.677 163.443,104.730 162.600 C 104.783 161.757,104.783 160.377,104.730 159.533 C 104.677 158.690,104.634 159.380,104.634 161.067 M332.891 162.800 C 332.892 163.973,332.939 164.420,332.996 163.793 C 333.052 163.166,333.051 162.206,332.994 161.660 C 332.937 161.113,332.890 161.627,332.891 162.800 M112.371 172.533 C 112.371 174.513,112.413 175.323,112.464 174.333 C 112.516 173.343,112.516 171.723,112.464 170.733 C 112.413 169.743,112.371 170.553,112.371 172.533 M156.901 173.600 C 156.901 175.287,156.944 175.977,156.997 175.133 C 157.050 174.290,157.050 172.910,156.997 172.067 C 156.944 171.223,156.901 171.913,156.901 173.600 M164.634 175.733 C 164.634 177.420,164.677 178.110,164.730 177.267 C 164.783 176.423,164.783 175.043,164.730 174.200 C 164.677 173.357,164.634 174.047,164.634 175.733 M113.133 176.184 C 113.390 176.251,113.810 176.251,114.067 176.184 C 114.323 176.117,114.113 176.062,113.600 176.062 C 113.087 176.062,112.877 176.117,113.133 176.184 M121.133 176.450 C 121.390 176.518,121.810 176.518,122.067 176.450 C 122.323 176.383,122.113 176.329,121.600 176.329 C 121.087 176.329,120.877 176.383,121.133 176.450 M258.473 179.200 C 258.473 179.860,258.525 180.130,258.588 179.800 C 258.652 179.470,258.652 178.930,258.588 178.600 C 258.525 178.270,258.473 178.540,258.473 179.200 M332.329 178.933 C 332.329 179.447,332.383 179.657,332.450 179.400 C 332.518 179.143,332.518 178.723,332.450 178.467 C 332.383 178.210,332.329 178.420,332.329 178.933 M258.467 182.533 C 258.470 183.120,258.525 183.329,258.589 182.997 C 258.652 182.665,258.650 182.185,258.583 181.930 C 258.516 181.675,258.464 181.947,258.467 182.533 M104.883 190.267 C 104.884 191.147,104.934 191.475,104.993 190.995 C 105.053 190.516,105.051 189.796,104.991 189.395 C 104.930 188.995,104.881 189.387,104.883 190.267 M287.575 194.400 C 287.575 196.820,287.616 197.810,287.665 196.600 C 287.714 195.390,287.714 193.410,287.665 192.200 C 287.616 190.990,287.575 191.980,287.575 194.400 M164.610 196.133 C 164.612 196.867,164.663 197.135,164.725 196.730 C 164.786 196.324,164.784 195.724,164.721 195.396 C 164.658 195.068,164.608 195.400,164.610 196.133 M112.347 196.533 C 112.347 197.340,112.397 197.670,112.458 197.267 C 112.519 196.863,112.519 196.203,112.458 195.800 C 112.397 195.397,112.347 195.727,112.347 196.533 M156.880 198.400 C 156.880 199.207,156.930 199.537,156.991 199.133 C 157.052 198.730,157.052 198.070,156.991 197.667 C 156.930 197.263,156.880 197.593,156.880 198.400 M331.028 199.333 C 331.027 200.653,331.072 201.227,331.128 200.608 C 331.184 199.989,331.185 198.909,331.130 198.208 C 331.075 197.507,331.029 198.013,331.028 199.333 M169.933 200.466 C 172.830 200.509,177.570 200.509,180.467 200.466 C 183.363 200.423,180.993 200.388,175.200 200.388 C 169.407 200.388,167.037 200.423,169.933 200.466 M104.613 203.733 C 104.613 204.540,104.663 204.870,104.724 204.467 C 104.785 204.063,104.785 203.403,104.724 203.000 C 104.663 202.597,104.613 202.927,104.613 203.733 M107.800 207.384 C 108.057 207.451,108.477 207.451,108.733 207.384 C 108.990 207.317,108.780 207.262,108.267 207.262 C 107.753 207.262,107.543 207.317,107.800 207.384 M102.467 221.530 C 103.310 221.583,104.690 221.583,105.533 221.530 C 106.377 221.477,105.687 221.434,104.000 221.434 C 102.313 221.434,101.623 221.477,102.467 221.530 M110.076 221.530 C 110.851 221.584,112.051 221.584,112.742 221.529 C 113.434 221.474,112.800 221.430,111.333 221.431 C 109.867 221.431,109.301 221.476,110.076 221.530 M237.009 224.730 C 237.784 224.784,238.984 224.784,239.676 224.729 C 240.367 224.674,239.733 224.630,238.267 224.631 C 236.800 224.631,236.234 224.676,237.009 224.730 M282.333 224.722 C 282.663 224.785,283.203 224.785,283.533 224.722 C 283.863 224.658,283.593 224.606,282.933 224.606 C 282.273 224.606,282.003 224.658,282.333 224.722 M190.870 225.255 C 191.201 225.319,191.681 225.317,191.936 225.250 C 192.191 225.183,191.920 225.131,191.333 225.134 C 190.747 225.137,190.538 225.191,190.870 225.255 M175.000 225.528 C 175.550 225.585,176.450 225.585,177.000 225.528 C 177.550 225.470,177.100 225.423,176.000 225.423 C 174.900 225.423,174.450 225.470,175.000 225.528 M179.940 225.529 C 180.568 225.585,181.528 225.584,182.074 225.527 C 182.620 225.470,182.107 225.424,180.933 225.425 C 179.760 225.426,179.313 225.473,179.940 225.529 M169.450 253.067 C 169.450 257.100,169.487 258.750,169.533 256.733 C 169.578 254.717,169.578 251.417,169.533 249.400 C 169.487 247.383,169.450 249.033,169.450 253.067 M211.576 250.400 C 211.576 252.967,211.616 254.017,211.665 252.733 C 211.714 251.450,211.714 249.350,211.665 248.067 C 211.616 246.783,211.576 247.833,211.576 250.400 M221.174 249.867 C 221.174 252.140,221.215 253.070,221.265 251.933 C 221.315 250.797,221.315 248.937,221.265 247.800 C 221.215 246.663,221.174 247.593,221.174 249.867 M274.336 246.855 C 274.668 246.919,275.148 246.917,275.403 246.850 C 275.658 246.783,275.387 246.731,274.800 246.734 C 274.213 246.737,274.005 246.791,274.336 246.855 M278.737 246.858 C 279.142 246.919,279.742 246.918,280.070 246.854 C 280.398 246.791,280.067 246.741,279.333 246.743 C 278.600 246.745,278.332 246.797,278.737 246.858 M130.995 252.000 C 130.995 252.513,131.050 252.723,131.117 252.467 C 131.184 252.210,131.184 251.790,131.117 251.533 C 131.050 251.277,130.995 251.487,130.995 252.000 M124.600 259.384 C 124.857 259.451,125.277 259.451,125.533 259.384 C 125.790 259.317,125.580 259.262,125.067 259.262 C 124.553 259.262,124.343 259.317,124.600 259.384 M146.603 259.389 C 146.935 259.452,147.415 259.450,147.670 259.383 C 147.925 259.316,147.653 259.264,147.067 259.267 C 146.480 259.270,146.271 259.325,146.603 259.389 M200.736 259.389 C 201.068 259.452,201.548 259.450,201.803 259.383 C 202.058 259.316,201.787 259.264,201.200 259.267 C 200.613 259.270,200.405 259.325,200.736 259.389 M216.067 259.384 C 216.323 259.451,216.743 259.451,217.000 259.384 C 217.257 259.317,217.047 259.262,216.533 259.262 C 216.020 259.262,215.810 259.317,216.067 259.384 M162.333 264.988 C 162.663 265.052,163.203 265.052,163.533 264.988 C 163.863 264.925,163.593 264.873,162.933 264.873 C 162.273 264.873,162.003 264.925,162.333 264.988 " stroke="none" fill="#5eaffc" fill-rule="evenodd"></path><path id="path3" d="M283.000 136.194 C 283.550 136.252,284.450 136.252,285.000 136.194 C 285.550 136.137,285.100 136.090,284.000 136.090 C 282.900 136.090,282.450 136.137,283.000 136.194 M274.600 136.455 C 274.930 136.518,275.470 136.518,275.800 136.455 C 276.130 136.391,275.860 136.339,275.200 136.339 C 274.540 136.339,274.270 136.391,274.600 136.455 M268.867 136.717 C 269.123 136.784,269.543 136.784,269.800 136.717 C 270.057 136.650,269.847 136.595,269.333 136.595 C 268.820 136.595,268.610 136.650,268.867 136.717 M146.067 139.126 C 146.543 139.185,147.323 139.185,147.800 139.126 C 148.277 139.067,147.887 139.019,146.933 139.019 C 145.980 139.019,145.590 139.067,146.067 139.126 M190.722 139.131 C 191.705 139.182,193.385 139.182,194.455 139.132 C 195.525 139.081,194.720 139.039,192.667 139.039 C 190.613 139.038,189.738 139.080,190.722 139.131 M137.000 139.388 C 137.330 139.452,137.870 139.452,138.200 139.388 C 138.530 139.325,138.260 139.273,137.600 139.273 C 136.940 139.273,136.670 139.325,137.000 139.388 M125.667 139.917 C 125.923 139.984,126.343 139.984,126.600 139.917 C 126.857 139.850,126.647 139.795,126.133 139.795 C 125.620 139.795,125.410 139.850,125.667 139.917 M277.267 152.460 C 277.743 152.519,278.523 152.519,279.000 152.460 C 279.477 152.400,279.087 152.352,278.133 152.352 C 277.180 152.352,276.790 152.400,277.267 152.460 M106.333 152.998 C 107.397 153.049,109.137 153.049,110.200 152.998 C 111.263 152.947,110.393 152.906,108.267 152.906 C 106.140 152.906,105.270 152.947,106.333 152.998 M156.641 153.170 C 156.560 153.382,156.545 153.895,156.607 154.311 C 156.702 154.946,156.726 154.908,156.760 154.067 L 156.800 153.067 160.789 153.067 L 164.778 153.067 164.872 155.133 L 164.966 157.200 164.949 155.067 L 164.933 152.933 160.861 152.860 C 157.512 152.799,156.762 152.854,156.641 153.170 M134.667 156.617 C 134.667 156.663,135.057 157.053,135.533 157.483 L 136.400 158.267 135.617 157.400 C 134.887 156.592,134.667 156.411,134.667 156.617 M114.613 159.399 C 115.830 159.448,117.750 159.448,118.879 159.398 C 120.009 159.348,119.013 159.308,116.667 159.308 C 114.320 159.308,113.396 159.349,114.613 159.399 M276.067 159.391 C 276.470 159.452,277.130 159.452,277.533 159.391 C 277.937 159.330,277.607 159.280,276.800 159.280 C 275.993 159.280,275.663 159.330,276.067 159.391 M263.719 163.933 L 262.800 164.933 263.800 164.014 C 264.350 163.509,264.800 163.059,264.800 163.014 C 264.800 162.811,264.574 163.003,263.719 163.933 M104.644 168.667 C 104.644 171.307,104.684 172.351,104.732 170.987 C 104.781 169.622,104.780 167.462,104.732 166.187 C 104.683 164.911,104.643 166.027,104.644 168.667 M138.734 166.267 C 138.737 166.853,138.791 167.062,138.855 166.730 C 138.919 166.399,138.917 165.919,138.850 165.664 C 138.783 165.409,138.731 165.680,138.734 166.267 M332.601 168.400 C 332.604 168.987,332.658 169.195,332.722 168.864 C 332.786 168.532,332.783 168.052,332.717 167.797 C 332.650 167.542,332.598 167.813,332.601 168.400 M332.349 176.667 C 332.351 177.547,332.401 177.875,332.460 177.395 C 332.519 176.916,332.518 176.196,332.457 175.795 C 332.396 175.395,332.348 175.787,332.349 176.667 M114.867 176.188 C 115.197 176.252,115.737 176.252,116.067 176.188 C 116.397 176.125,116.127 176.073,115.467 176.073 C 114.807 176.073,114.537 176.125,114.867 176.188 M240.100 179.067 C 240.100 180.680,240.144 181.306,240.197 180.457 C 240.250 179.608,240.250 178.288,240.196 177.524 C 240.143 176.759,240.099 177.453,240.100 179.067 M156.910 181.200 C 156.910 183.840,156.950 184.884,156.999 183.520 C 157.047 182.156,157.047 179.996,156.998 178.720 C 156.950 177.444,156.910 178.560,156.910 181.200 M164.643 183.200 C 164.643 185.767,164.683 186.817,164.732 185.533 C 164.781 184.250,164.781 182.150,164.732 180.867 C 164.683 179.583,164.643 180.633,164.643 183.200 M112.365 185.867 C 112.365 187.407,112.409 188.037,112.463 187.267 C 112.517 186.497,112.517 185.237,112.463 184.467 C 112.409 183.697,112.365 184.327,112.365 185.867 M294.800 194.800 C 294.800 200.272,294.890 204.693,295.000 204.625 C 295.110 204.557,295.200 200.136,295.200 194.800 C 295.200 189.464,295.110 185.043,295.000 184.975 C 294.890 184.907,294.800 189.328,294.800 194.800 M164.623 193.067 C 164.623 194.167,164.670 194.617,164.728 194.067 C 164.785 193.517,164.785 192.617,164.728 192.067 C 164.670 191.517,164.623 191.967,164.623 193.067 M112.356 193.333 C 112.356 194.433,112.403 194.883,112.461 194.333 C 112.518 193.783,112.518 192.883,112.461 192.333 C 112.403 191.783,112.356 192.233,112.356 193.333 M70.467 192.450 C 70.723 192.518,71.143 192.518,71.400 192.450 C 71.657 192.383,71.447 192.329,70.933 192.329 C 70.420 192.329,70.210 192.383,70.467 192.450 M156.891 195.067 C 156.892 196.240,156.939 196.687,156.996 196.060 C 157.052 195.432,157.051 194.472,156.994 193.926 C 156.937 193.380,156.890 193.893,156.891 195.067 M331.013 195.733 C 331.013 196.540,331.063 196.870,331.124 196.467 C 331.185 196.063,331.185 195.403,331.124 195.000 C 331.063 194.597,331.013 194.927,331.013 195.733 M104.625 200.400 C 104.626 201.573,104.673 202.020,104.729 201.393 C 104.785 200.766,104.784 199.806,104.727 199.260 C 104.670 198.713,104.624 199.227,104.625 200.400 M275.140 200.996 C 275.768 201.052,276.728 201.051,277.274 200.994 C 277.820 200.937,277.307 200.890,276.133 200.891 C 274.960 200.892,274.513 200.939,275.140 200.996 M106.070 207.389 C 106.401 207.452,106.881 207.450,107.136 207.383 C 107.391 207.316,107.120 207.264,106.533 207.267 C 105.947 207.270,105.738 207.325,106.070 207.389 M117.400 207.650 C 117.657 207.718,118.077 207.718,118.333 207.650 C 118.590 207.583,118.380 207.529,117.867 207.529 C 117.353 207.529,117.143 207.583,117.400 207.650 M274.733 207.929 C 275.430 207.984,276.570 207.984,277.267 207.929 C 277.963 207.874,277.393 207.829,276.000 207.829 C 274.607 207.829,274.037 207.874,274.733 207.929 M94.200 221.250 C 94.457 221.318,94.877 221.318,95.133 221.250 C 95.390 221.183,95.180 221.129,94.667 221.129 C 94.153 221.129,93.943 221.183,94.200 221.250 M114.467 221.524 C 114.870 221.585,115.530 221.585,115.933 221.524 C 116.337 221.463,116.007 221.413,115.200 221.413 C 114.393 221.413,114.063 221.463,114.467 221.524 M293.667 224.184 C 293.923 224.251,294.343 224.251,294.600 224.184 C 294.857 224.117,294.647 224.062,294.133 224.062 C 293.620 224.062,293.410 224.117,293.667 224.184 M288.200 224.455 C 288.530 224.518,289.070 224.518,289.400 224.455 C 289.730 224.391,289.460 224.339,288.800 224.339 C 288.140 224.339,287.870 224.391,288.200 224.455 M229.667 224.732 C 230.803 224.782,232.663 224.782,233.800 224.732 C 234.937 224.682,234.007 224.641,231.733 224.641 C 229.460 224.641,228.530 224.682,229.667 224.732 M243.400 224.732 C 244.903 224.780,247.363 224.780,248.867 224.732 C 250.370 224.685,249.140 224.646,246.133 224.646 C 243.127 224.646,241.897 224.685,243.400 224.732 M279.671 224.727 C 280.151 224.786,280.871 224.785,281.271 224.724 C 281.672 224.663,281.280 224.614,280.400 224.616 C 279.520 224.617,279.192 224.667,279.671 224.727 M218.600 224.988 C 218.930 225.052,219.470 225.052,219.800 224.988 C 220.130 224.925,219.860 224.873,219.200 224.873 C 218.540 224.873,218.270 224.925,218.600 224.988 M188.333 225.258 C 188.737 225.319,189.397 225.319,189.800 225.258 C 190.203 225.197,189.873 225.147,189.067 225.147 C 188.260 225.147,187.930 225.197,188.333 225.258 M120.048 243.400 C 120.022 245.490,120.090 247.200,120.200 247.201 C 120.310 247.201,120.368 246.031,120.329 244.601 C 120.203 239.968,120.097 239.514,120.048 243.400 M270.253 249.067 C 270.253 254.127,270.289 256.197,270.333 253.667 C 270.377 251.137,270.377 246.997,270.333 244.467 C 270.289 241.937,270.253 244.007,270.253 249.067 M136.653 249.067 C 136.653 253.980,136.689 255.990,136.733 253.533 C 136.777 251.077,136.777 247.057,136.733 244.600 C 136.689 242.143,136.653 244.153,136.653 249.067 M275.810 243.867 C 275.812 244.600,275.863 244.868,275.925 244.463 C 275.986 244.058,275.984 243.458,275.921 243.130 C 275.858 242.802,275.808 243.133,275.810 243.867 M213.708 250.000 C 213.708 252.347,213.749 253.271,213.799 252.054 C 213.848 250.837,213.848 248.917,213.798 247.787 C 213.748 246.658,213.708 247.653,213.708 250.000 M227.848 252.133 C 227.849 255.653,227.886 257.056,227.933 255.251 C 227.979 253.446,227.979 250.566,227.932 248.851 C 227.886 247.136,227.848 248.613,227.848 252.133 M124.067 246.584 C 124.323 246.651,124.743 246.651,125.000 246.584 C 125.257 246.517,125.047 246.462,124.533 246.462 C 124.020 246.462,123.810 246.517,124.067 246.584 M146.467 246.584 C 146.723 246.651,147.143 246.651,147.400 246.584 C 147.657 246.517,147.447 246.462,146.933 246.462 C 146.420 246.462,146.210 246.517,146.467 246.584 M200.867 246.584 C 201.123 246.651,201.543 246.651,201.800 246.584 C 202.057 246.517,201.847 246.462,201.333 246.462 C 200.820 246.462,200.610 246.517,200.867 246.584 M242.204 246.591 C 242.609 246.653,243.209 246.651,243.537 246.588 C 243.865 246.524,243.533 246.474,242.800 246.476 C 242.067 246.478,241.798 246.530,242.204 246.591 M257.536 246.589 C 257.868 246.652,258.348 246.650,258.603 246.583 C 258.858 246.516,258.587 246.464,258.000 246.467 C 257.413 246.470,257.205 246.525,257.536 246.589 M275.847 252.533 C 275.847 255.833,275.886 257.183,275.932 255.533 C 275.979 253.883,275.979 251.183,275.932 249.533 C 275.886 247.883,275.847 249.233,275.847 252.533 M277.980 252.667 C 277.981 255.893,278.019 257.177,278.066 255.519 C 278.113 253.860,278.113 251.220,278.066 249.652 C 278.018 248.083,277.980 249.440,277.980 252.667 M229.974 254.133 C 229.974 256.407,230.015 257.337,230.065 256.200 C 230.115 255.063,230.115 253.203,230.065 252.067 C 230.015 250.930,229.974 251.860,229.974 254.133 M120.073 252.000 C 120.073 252.660,120.125 252.930,120.188 252.600 C 120.252 252.270,120.252 251.730,120.188 251.400 C 120.125 251.070,120.073 251.340,120.073 252.000 M128.601 251.867 C 128.604 252.453,128.658 252.662,128.722 252.330 C 128.786 251.999,128.783 251.519,128.717 251.264 C 128.650 251.009,128.598 251.280,128.601 251.867 M167.283 258.000 C 167.284 258.880,167.334 259.208,167.393 258.729 C 167.453 258.249,167.451 257.529,167.391 257.129 C 167.330 256.728,167.281 257.120,167.283 258.000 " stroke="none" fill="#9bcdfc" fill-rule="evenodd"></path><path id="path4" d="M279.267 136.184 C 279.523 136.251,279.943 136.251,280.200 136.184 C 280.457 136.117,280.247 136.062,279.733 136.062 C 279.220 136.062,279.010 136.117,279.267 136.184 M156.210 138.864 C 157.133 138.917,158.573 138.916,159.410 138.863 C 160.248 138.811,159.493 138.768,157.733 138.768 C 155.973 138.769,155.288 138.812,156.210 138.864 M174.467 138.864 C 175.457 138.916,177.077 138.916,178.067 138.864 C 179.057 138.813,178.247 138.771,176.267 138.771 C 174.287 138.771,173.477 138.813,174.467 138.864 M141.533 139.122 C 141.863 139.185,142.403 139.185,142.733 139.122 C 143.063 139.058,142.793 139.006,142.133 139.006 C 141.473 139.006,141.203 139.058,141.533 139.122 M202.467 139.129 C 203.163 139.184,204.303 139.184,205.000 139.129 C 205.697 139.074,205.127 139.029,203.733 139.029 C 202.340 139.029,201.770 139.074,202.467 139.129 M214.867 152.455 C 215.197 152.518,215.737 152.518,216.067 152.455 C 216.397 152.391,216.127 152.339,215.467 152.339 C 214.807 152.339,214.537 152.391,214.867 152.455 M104.631 155.600 C 104.631 157.067,104.676 157.633,104.730 156.858 C 104.784 156.083,104.784 154.883,104.729 154.191 C 104.674 153.499,104.630 154.133,104.631 155.600 M257.183 160.067 L 256.400 160.933 257.267 160.150 C 257.743 159.719,258.133 159.329,258.133 159.283 C 258.133 159.077,257.913 159.259,257.183 160.067 M112.372 165.467 C 112.372 167.520,112.414 168.325,112.465 167.255 C 112.516 166.185,112.515 164.505,112.464 163.522 C 112.413 162.538,112.371 163.413,112.372 165.467 M156.899 168.000 C 156.899 169.540,156.943 170.170,156.997 169.400 C 157.050 168.630,157.050 167.370,156.997 166.600 C 156.943 165.830,156.899 166.460,156.899 168.000 M164.632 170.133 C 164.632 171.673,164.676 172.303,164.730 171.533 C 164.784 170.763,164.784 169.503,164.730 168.733 C 164.676 167.963,164.632 168.593,164.632 170.133 M119.533 176.450 C 119.790 176.518,120.210 176.518,120.467 176.450 C 120.723 176.383,120.513 176.329,120.000 176.329 C 119.487 176.329,119.277 176.383,119.533 176.450 M197.667 178.267 C 197.670 178.853,197.725 179.062,197.789 178.730 C 197.852 178.399,197.850 177.919,197.783 177.664 C 197.716 177.409,197.664 177.680,197.667 178.267 M249.954 181.200 C 249.955 182.227,250.004 182.614,250.061 182.061 C 250.119 181.507,250.118 180.667,250.059 180.194 C 250.000 179.721,249.953 180.173,249.954 181.200 M197.667 180.933 C 197.670 181.520,197.725 181.729,197.789 181.397 C 197.852 181.065,197.850 180.585,197.783 180.330 C 197.716 180.075,197.664 180.347,197.667 180.933 M120.200 182.595 C 120.823 182.651,121.843 182.651,122.467 182.595 C 123.090 182.539,122.580 182.493,121.333 182.493 C 120.087 182.493,119.577 182.539,120.200 182.595 M104.899 186.133 C 104.899 187.673,104.943 188.303,104.997 187.533 C 105.050 186.763,105.050 185.503,104.997 184.733 C 104.943 183.963,104.899 184.593,104.899 186.133 M287.554 188.400 C 287.555 189.427,287.604 189.814,287.661 189.261 C 287.719 188.707,287.718 187.867,287.659 187.394 C 287.600 186.921,287.553 187.373,287.554 188.400 M104.876 192.933 C 104.878 193.667,104.930 193.935,104.991 193.530 C 105.053 193.124,105.051 192.524,104.988 192.196 C 104.924 191.868,104.874 192.200,104.876 192.933 M226.783 196.867 L 226.000 197.733 226.867 196.950 C 227.343 196.519,227.733 196.129,227.733 196.083 C 227.733 195.877,227.513 196.059,226.783 196.867 M164.606 198.400 C 164.606 199.060,164.658 199.330,164.722 199.000 C 164.785 198.670,164.785 198.130,164.722 197.800 C 164.658 197.470,164.606 197.740,164.606 198.400 M112.343 199.067 C 112.345 199.800,112.397 200.068,112.458 199.663 C 112.519 199.258,112.518 198.658,112.454 198.330 C 112.391 198.002,112.341 198.333,112.343 199.067 M156.873 200.800 C 156.873 201.460,156.925 201.730,156.988 201.400 C 157.052 201.070,157.052 200.530,156.988 200.200 C 156.925 199.870,156.873 200.140,156.873 200.800 M214.070 201.255 C 214.401 201.319,214.881 201.317,215.136 201.250 C 215.391 201.183,215.120 201.131,214.533 201.134 C 213.947 201.137,213.738 201.191,214.070 201.255 M330.995 202.400 C 330.995 202.913,331.050 203.123,331.117 202.867 C 331.184 202.610,331.184 202.190,331.117 201.933 C 331.050 201.677,330.995 201.887,330.995 202.400 M104.606 206.133 C 104.606 206.793,104.658 207.063,104.722 206.733 C 104.785 206.403,104.785 205.863,104.722 205.533 C 104.658 205.203,104.606 205.473,104.606 206.133 M109.400 207.384 C 109.657 207.451,110.077 207.451,110.333 207.384 C 110.590 207.317,110.380 207.262,109.867 207.262 C 109.353 207.262,109.143 207.317,109.400 207.384 M212.867 207.928 C 213.417 207.985,214.317 207.985,214.867 207.928 C 215.417 207.870,214.967 207.823,213.867 207.823 C 212.767 207.823,212.317 207.870,212.867 207.928 M98.600 221.526 C 99.077 221.585,99.857 221.585,100.333 221.526 C 100.810 221.467,100.420 221.419,99.467 221.419 C 98.513 221.419,98.123 221.467,98.600 221.526 M107.403 221.522 C 107.735 221.586,108.215 221.583,108.470 221.517 C 108.725 221.450,108.453 221.398,107.867 221.401 C 107.280 221.404,107.071 221.458,107.403 221.522 M284.333 224.717 C 284.590 224.784,285.010 224.784,285.267 224.717 C 285.523 224.650,285.313 224.595,284.800 224.595 C 284.287 224.595,284.077 224.650,284.333 224.717 M222.067 224.988 C 222.397 225.052,222.937 225.052,223.267 224.988 C 223.597 224.925,223.327 224.873,222.667 224.873 C 222.007 224.873,221.737 224.925,222.067 224.988 M266.867 224.988 C 267.197 225.052,267.737 225.052,268.067 224.988 C 268.397 224.925,268.127 224.873,267.467 224.873 C 266.807 224.873,266.537 224.925,266.867 224.988 M192.733 225.255 C 193.063 225.318,193.603 225.318,193.933 225.255 C 194.263 225.191,193.993 225.139,193.333 225.139 C 192.673 225.139,192.403 225.191,192.733 225.255 M183.403 225.522 C 183.735 225.586,184.215 225.583,184.470 225.517 C 184.725 225.450,184.453 225.398,183.867 225.401 C 183.280 225.404,183.071 225.458,183.403 225.522 M223.581 252.000 C 223.581 255.447,223.619 256.857,223.666 255.133 C 223.712 253.410,223.712 250.590,223.666 248.867 C 223.619 247.143,223.581 248.553,223.581 252.000 M120.000 257.451 C 120.000 258.268,120.152 258.334,120.344 257.600 C 120.421 257.307,120.375 257.000,120.242 256.918 C 120.109 256.836,120.000 257.076,120.000 257.451 " stroke="none" fill="#389cfc" fill-rule="evenodd"></path></g></svg>